<svg width="14" height="14" viewBox="0 0 14 14" fill="none" xmlns="http://www.w3.org/2000/svg">
<path fill-rule="evenodd" clip-rule="evenodd" d="M0 7C0 3.13401 3.13402 0 7 0C10.866 0 14 3.134 14 7C14 10.866 10.866 14 7 14C3.13402 14 0 10.866 0 7ZM12.8333 7C12.8333 3.77833 10.2217 1.16667 7 1.16667C3.77835 1.16667 1.16667 3.77834 1.16667 7C1.16667 10.2217 3.77835 12.8333 7 12.8333C10.2217 12.8333 12.8333 10.2217 12.8333 7ZM5.97917 3.64583C5.97917 3.08204 6.43621 2.625 7 2.625C7.56379 2.625 8.02083 3.08204 8.02083 3.64583C8.02083 4.20962 7.56379 4.66667 7 4.66667C6.43621 4.66667 5.97917 4.20962 5.97917 3.64583ZM7.88558 6.62406C7.84318 6.18035 7.46941 5.83333 7.01458 5.83333C6.53133 5.83333 6.13958 6.22508 6.13958 6.70833V10.5L6.14359 10.5843C6.18599 11.028 6.55976 11.375 7.01458 11.375C7.49783 11.375 7.88958 10.9832 7.88958 10.5V6.70833L7.88558 6.62406Z" fill="#AAB5C0"/>
</svg>
